<?xml version="1.0" encoding="iso-8859-1"?>
<!-- Generator: Adobe Illustrator 24.0.1, SVG Export Plug-In . SVG Version: 6.00 Build 0)  -->
<svg version="1.1" id="&#x56FE;&#x5C42;_1" xmlns="http://www.w3.org/2000/svg" xmlns:xlink="http://www.w3.org/1999/xlink" x="0px"
	 y="0px" viewBox="0 0 440.766 399.795" style="enable-background:new 0 0 440.766 399.795;" xml:space="preserve">
<path style="fill:#CAE7B9;" d="M348.447,400H93.085c-50.776,0-92.319-41.544-92.319-92.319V92.319C0.766,41.544,42.31,0,93.085,0
	h255.362c50.776,0,92.319,41.544,92.319,92.319v215.362C440.766,358.456,399.222,400,348.447,400z"/>
<g>
	<defs>
		<path id="SVGID_7_" d="M349.213,400H92.319C41.544,400,0,358.456,0,307.681V94.218C0,43.443,41.544,1.899,92.319,1.899h256.894
			c50.776,0,92.319,41.544,92.319,92.319v213.463C441.532,358.456,399.988,400,349.213,400z"/>
	</defs>
	<clipPath id="SVGID_2_">
		<use xlink:href="#SVGID_7_"  style="overflow:visible;"/>
	</clipPath>
	<circle style="clip-path:url(#SVGID_2_);fill:#E2F3D6;" cx="277.457" cy="343.726" r="115"/>
	<circle style="clip-path:url(#SVGID_2_);fill:#DAEECD;" cx="345.879" cy="297.489" r="125"/>
</g>
</svg>
