<?xml version="1.0" encoding="iso-8859-1"?>
<!-- Generator: Adobe Illustrator 24.0.1, SVG Export Plug-In . SVG Version: 6.00 Build 0)  -->
<svg version="1.1" id="&#x56FE;&#x5C42;_1" xmlns="http://www.w3.org/2000/svg" xmlns:xlink="http://www.w3.org/1999/xlink" x="0px"
	 y="0px" viewBox="0 0 400 500" style="enable-background:new 0 0 400 500;" xml:space="preserve">
<path style="fill:#FBBB85;" d="M307.681,500H92.319C41.544,500,0,458.456,0,407.681V92.319C0,41.544,41.544,0,92.319,0h215.362
	C358.456,0,400,41.544,400,92.319v315.362C400,458.456,358.456,500,307.681,500z"/>
<g>
	<defs>
		<path id="SVGID_11_" d="M307.681,500H92.319C41.544,500,0,458.456,0,407.681V92.319C0,41.544,41.544,0,92.319,0h215.362
			C358.456,0,400,41.544,400,92.319v315.362C400,458.456,358.456,500,307.681,500z"/>
	</defs>
	<clipPath id="SVGID_2_">
		<use xlink:href="#SVGID_11_"  style="overflow:visible;"/>
	</clipPath>
	<path style="clip-path:url(#SVGID_2_);fill:#FFD1AF;" d="M324.535,453.719l-80.639,118.789
		c-9.306,13.708-27.962,17.277-41.671,7.971L83.436,499.84c-13.708-9.306-17.277-27.962-7.971-41.671l80.639-118.789
		c9.306-13.708,27.962-17.277,41.671-7.971l118.789,80.639C330.272,421.354,333.841,440.01,324.535,453.719z"/>
	<path style="clip-path:url(#SVGID_2_);fill:#FFC59B;" d="M461.775,394.337L333.604,522.509c-11.716,11.716-30.711,11.716-42.426,0
		L163.006,394.337c-11.716-11.716-11.716-30.711,0-42.426l128.172-128.172c11.716-11.716,30.711-11.716,42.426,0l128.172,128.172
		C473.491,363.627,473.491,382.622,461.775,394.337z"/>
</g>
</svg>
