<?xml version="1.0" encoding="iso-8859-1"?>
<!-- Generator: Adobe Illustrator 24.0.1, SVG Export Plug-In . SVG Version: 6.00 Build 0)  -->
<svg version="1.1" id="&#x56FE;&#x5C42;_1" xmlns="http://www.w3.org/2000/svg" xmlns:xlink="http://www.w3.org/1999/xlink" x="0px"
	 y="0px" viewBox="0 0 441.532 780.378" style="enable-background:new 0 0 441.532 780.378;" xml:space="preserve">
<path style="fill:#91E1E7;" d="M348.447,780.189H93.085c-50.776,0-92.319-41.544-92.319-92.319V92.508
	c0-50.776,41.544-92.319,92.319-92.319h255.362c50.776,0,92.319,41.544,92.319,92.319V687.87
	C440.766,738.645,399.222,780.189,348.447,780.189z"/>
<g>
	<defs>
		<path id="SVGID_9_" d="M349.213,780.378H92.319C41.544,780.378,0,738.834,0,688.059V92.319C0,41.544,41.544,0,92.319,0h256.894
			c50.776,0,92.319,41.544,92.319,92.319v595.74C441.532,738.834,399.988,780.378,349.213,780.378z"/>
	</defs>
	<clipPath id="SVGID_2_">
		<use xlink:href="#SVGID_9_"  style="overflow:visible;"/>
	</clipPath>
	<g style="clip-path:url(#SVGID_2_);">
		<circle style="fill:#B2FFFF;" cx="195.148" cy="661.242" r="147.395"/>
		<circle style="fill:#B2FFFF;" cx="428.866" cy="609.063" r="147.395"/>
		<path style="fill:#B2FFFF;" d="M63.399,727.328c0,0,59.476,145.371,329.795,164.369c0,0,199.798-178.025,182.387-297.079"/>
	</g>
	<g style="clip-path:url(#SVGID_2_);">
		<g>
			<circle style="fill:#A7F3F1;" cx="250.297" cy="529.24" r="147.395"/>
			<circle style="fill:#A7F3F1;" cx="484.015" cy="477.061" r="147.395"/>
			<path style="fill:#A7F3F1;" d="M118.548,595.326c0,0,59.476,145.371,329.795,164.369c0,0,199.798-178.025,182.387-297.079"/>
		</g>
	</g>
</g>
</svg>
