<?xml version="1.0" encoding="iso-8859-1"?>
<!-- Generator: Adobe Illustrator 24.0.1, SVG Export Plug-In . SVG Version: 6.00 Build 0)  -->
<svg version="1.1" id="&#x56FE;&#x5C42;_1" xmlns="http://www.w3.org/2000/svg" xmlns:xlink="http://www.w3.org/1999/xlink" x="0px"
	 y="0px" viewBox="0 0 74.995 75" style="enable-background:new 0 0 74.995 75;" xml:space="preserve">
<path style="fill:#FFFFFF;" d="M74.995,37.125c-0.119-9.873-3.987-19.155-10.973-26.145C56.956,3.91,47.523,0,37.497,0
	c-10.026,0-19.42,3.91-26.485,10.979C4.026,17.97,0.119,27.251,0,37.125c-0.118,9.874,3.592,19.194,10.421,26.303
	c0.197,0.198,0.395,0.395,0.553,0.593c1.815,1.817,3.829,3.476,5.999,4.898c0.553,0.355,1.145,0.513,1.737,0.513
	c1.026,0,2.052-0.513,2.644-1.422c0.947-1.461,0.553-3.436-0.908-4.384c-1.381-0.908-2.684-1.935-3.908-3.041
	c3.868-7.188,11.13-11.927,19.301-12.48c0.553,0.079,1.105,0.079,1.658,0.079c0.553,0,1.105-0.04,1.658-0.079
	c8.171,0.553,15.433,5.292,19.301,12.48c-4.223,3.87-9.394,6.477-15.038,7.543c-1.776,0.356-3.631,0.553-5.526,0.553
	c-1.737,0.04-3.118,1.461-3.118,3.199c0.04,1.738,1.421,3.12,3.157,3.12h0.04c2.25-0.04,4.46-0.277,6.631-0.672
	c7.342-1.422,14.052-4.976,19.341-10.308l0.592-0.593C71.403,56.319,75.113,46.998,74.995,37.125L74.995,37.125z M28.419,32.78
	c0-5.016,4.065-9.084,9.078-9.084c5.013,0,9.078,4.068,9.078,9.084c0,4.503-3.315,8.294-7.657,8.965
	c-0.474-0.039-0.948-0.039-1.421-0.039c-0.474,0-0.947,0-1.421,0.039C31.735,41.074,28.419,37.322,28.419,32.78L28.419,32.78z
	 M48.352,43.72c2.802-2.804,4.578-6.675,4.578-10.94c0-8.491-6.907-15.403-15.393-15.403c-8.486,0-15.394,6.912-15.394,15.403
	c0,4.265,1.737,8.136,4.579,10.94c-5.96,2.291-11.091,6.438-14.565,11.888c-8.644-12.165-7.499-29.345,3.355-40.166
	c5.881-5.884,13.736-9.123,22.064-9.123s16.143,3.239,22.064,9.123c10.815,10.821,11.999,28.001,3.355,40.166
	C59.404,50.158,54.272,46.011,48.352,43.72L48.352,43.72z M48.352,43.72"/>
<g>
	<defs>
		<path id="SVGID_17_" d="M230-20H-10c-44,0-80-36-80-80v-140c0-44,36-80,80-80h240c44,0,80,36,80,80v140C310-56,274-20,230-20z"/>
	</defs>
	<clipPath id="SVGID_2_">
		<use xlink:href="#SVGID_17_"  style="overflow:visible;"/>
	</clipPath>
	<path style="clip-path:url(#SVGID_2_);fill:#E5D1FF;" d="M32.917-53.551l69.364-120.142c8.284-14.349,26.632-19.265,40.981-10.981
		l120.142,69.364c14.349,8.284,19.265,26.632,10.981,40.981L205.021,45.813c-8.284,14.349-26.632,19.265-40.981,10.981L43.898-12.57
		C29.549-20.854,24.633-39.202,32.917-53.551z"/>
</g>
</svg>
