<?xml version="1.0" encoding="iso-8859-1"?>
<!-- Generator: Adobe Illustrator 24.0.1, SVG Export Plug-In . SVG Version: 6.00 Build 0)  -->
<svg version="1.1" id="&#x56FE;&#x5C42;_1" xmlns="http://www.w3.org/2000/svg" xmlns:xlink="http://www.w3.org/1999/xlink" x="0px"
	 y="0px" viewBox="0 0 1124.176 2436" style="enable-background:new 0 0 1124.176 2436;" xml:space="preserve">
<g>
	<rect x="-0.412" y="0.853" style="fill:#FFFFFF;" width="1125" height="2434.942"/>
	<rect x="843.132" y="0.204" style="fill:#FFFFFF;" width="281.044" height="281.044"/>
	<rect x="281.044" y="0.204" style="fill:#FFFFFF;" width="281.044" height="281.044"/>
	<g>
		<g>
			<circle style="fill:#91E1E7;" cx="140.522" cy="421.77" r="140.522"/>
			<path style="fill:#91E1E7;" d="M281.044,421.77V281.248H140.522C140.522,358.857,203.436,421.77,281.044,421.77"/>
		</g>
	</g>
	<g>
		<g>
			<circle style="fill:#D2B6EC;" cx="702.61" cy="702.814" r="140.522"/>
			<path style="fill:#D2B6EC;" d="M843.132,702.814V562.292H702.61C702.61,639.901,765.523,702.814,843.132,702.814"/>
		</g>
	</g>
	<path style="fill:#FBBB85;" d="M281.044,421.771V281.248h281.044l0,140.522c0,77.608-62.914,140.522-140.522,140.522h0
		C343.958,562.292,281.044,499.379,281.044,421.771z"/>
	<path style="fill:#FFFFFF;" d="M346.566,421.77V281.248h150V421.77c0,41.421-33.579,75-75,75h0
		C380.144,496.77,346.566,463.192,346.566,421.77z"/>
	<path style="fill:#CAE7B9;" d="M140.522,1122.75H0l0-281.044h140.522c77.608,0,140.522,62.914,140.522,140.522v0
		C281.044,1059.836,218.13,1122.75,140.522,1122.75z"/>
	<path style="fill:#FFFFFF;" d="M140.522,1057.228H0l0-150h140.522c41.421,0,75,33.579,75,75v0
		C215.522,1023.649,181.943,1057.228,140.522,1057.228z"/>
	<circle style="fill:#D2B6EC;" cx="421.566" cy="140.726" r="140.522"/>
	<circle style="fill:#FBBB85;" cx="702.61" cy="140.726" r="140.522"/>
	<circle style="fill:#CAE7B9;" cx="140.522" cy="70.465" r="70.261"/>
	<circle style="fill:#CAE7B9;" cx="140.522" cy="210.987" r="70.261"/>
	<circle style="fill:#FBBB85;" cx="140.522" cy="210.987" r="70.261"/>
	<circle style="fill:#D2B6EC;" cx="983.654" cy="911.967" r="70.261"/>
	<circle style="fill:#FBBB85;" cx="983.654" cy="1052.489" r="70.261"/>
	<circle style="fill:#D2B6EC;" cx="983.654" cy="421.77" r="139.657"/>
	<circle style="fill:#FBBB85;" cx="140.522" cy="1270.405" r="81.712"/>
	<path style="fill:#FBBB85;" d="M281.044,562.292v281.044H0C0,688.12,125.828,562.292,281.044,562.292"/>
	<path style="fill:#91E1E7;" d="M843.132,1403.794V1122.75h281.044C1124.176,1277.966,998.348,1403.794,843.132,1403.794"/>
	<path style="fill:#CAE7B9;" d="M1124.176,843.336V562.292H843.132C843.132,717.509,968.959,843.336,1124.176,843.336"/>
	<path style="fill:#CAE7B9;" d="M842.267,421.77c0,77.13-62.526,139.657-139.657,139.657S562.953,498.901,562.953,421.77"/>
	<path style="fill:#91E1E7;" d="M842.267,281.681c0,77.13-62.526,139.657-139.657,139.657s-139.657-62.527-139.657-139.657"/>
	<path style="fill:#CAE7B9;" d="M983.437,0.853c-77.13,0-139.657,62.527-139.657,139.657s62.526,139.657,139.657,139.657"/>
	<path style="fill:#91E1E7;" d="M1123.527,0.853c-77.13,0-139.657,62.527-139.657,139.657s62.526,139.657,139.657,139.657"/>
</g>
<g>
	<g style="opacity:0.5;">
		<defs>
			<rect id="SVGID_1_" x="1146.07" y="0.324" style="opacity:0.5;" width="1124.588" height="2436"/>
		</defs>
		<clipPath id="SVGID_2_">
			<use xlink:href="#SVGID_1_"  style="overflow:visible;"/>
		</clipPath>
		<g style="clip-path:url(#SVGID_2_);">
			
				<image style="overflow:visible;" width="3382" height="3382" xlink:href="12A90CD3.png"  transform="matrix(0.24 0 0 0.24 969.5972 -35.7445)">
			</image>
		</g>
		<g style="clip-path:url(#SVGID_2_);">
			
				<image style="overflow:visible;" width="2109" height="2110" xlink:href="12A90CD1.png"  transform="matrix(0.24 0 0 0.24 939.5972 588.4955)">
			</image>
		</g>
	</g>
</g>
</svg>
